<svg aria-hidden="true" style="position:absolute;width:0;height:0" xmlns="http://www.w3.org/2000/svg" overflow="hidden"><defs><symbol id="icon-facebook" viewBox="0 0 16 32"><path d="M13.04 5.272h2.899V.224A36.21 36.21 0 0011.848 0h-.14.007C7.536 0 4.673 2.629 4.673 7.461v4.446H.06v5.643h4.613v14.202h5.654v-14.2h4.424l.702-5.643h-5.128V8.021c0-1.632.44-2.749 2.714-2.749z"/></symbol><symbol id="icon-twitter" viewBox="0 0 39 32"><path d="M39.111 3.762a16.245 16.245 0 01-4.537 1.257l-.083.009A8.013 8.013 0 0038.002.654l.016-.056a15.723 15.723 0 01-4.982 1.922l-.103.017a8.016 8.016 0 00-13.87 5.476v.007c0 .636.053 1.248.187 1.829-6.667-.325-12.564-3.52-16.526-8.388a7.981 7.981 0 00-1.099 4.053v.001a8.027 8.027 0 003.563 6.663 7.888 7.888 0 01-3.663-1.007l.04.021v.089a8.058 8.058 0 006.372 7.866l.053.009a7.832 7.832 0 01-2.049.267h-.057.003c-.514 0-1.031-.03-1.518-.139 1.04 3.177 3.988 5.511 7.493 5.586a16.006 16.006 0 01-9.926 3.42h-.018.001c-.658 0-1.287-.03-1.918-.11 3.454 2.256 7.684 3.598 12.227 3.598h.078-.004c14.756 0 22.821-12.222 22.821-22.816 0-.356-.012-.697-.03-1.036a16.124 16.124 0 003.983-4.106l.036-.058z"/></symbol><symbol id="icon-instagram" viewBox="0 0 32 32"><path d="M10 0h12c5.523.001 9.999 4.477 10 10v12c-.001 5.523-4.477 9.999-10 10H10C4.478 31.999.001 27.523 0 22V10C.001 4.478 4.477.001 10 0zm12 29.001a7.008 7.008 0 007.001-7v-12a7.008 7.008 0 00-7-7.001h-12A7.008 7.008 0 003 10v12a7.008 7.008 0 007 7.001h12z"/><path d="M8 16a8 8 0 0116 0 8 8 0 01-16 0zm3.001 0A5.006 5.006 0 0016 21.001a5.007 5.007 0 005.001-5 5.005 5.005 0 00-5-5.001A5.005 5.005 0 0011 16zM24.601 8.465l.039.001a1.066 1.066 0 100-2.132l-.041.001h.002a1.066 1.066 0 00-.002 2.13h.002z"/></symbol><symbol id="icon-arrow-down" viewBox="0 0 48 32"><path d="M23.04 29.76a4.414 4.414 0 01-3.32-1.5L.88 6.852a3.55 3.55 0 015.329-4.688l.003.004 16.472 18.72a.479.479 0 00.72.001L39.872 2.173a3.548 3.548 0 115.323 4.681l.001-.001-18.832 21.408a4.426 4.426 0 01-3.324 1.504z"/></symbol><symbol id="icon-arrow-right" viewBox="0 0 64 32"><path d="M63.219 13.523L50.477.781a2.666 2.666 0 00-4.551 1.885v8.077a.666.666 0 01-.666.666H4a4 4 0 000 8h41.258c.368 0 .669.298.669.666v8.077a2.665 2.665 0 004.551 1.884L63.22 17.294c.482-.482.781-1.149.781-1.885s-.298-1.402-.781-1.885z"/></symbol><symbol id="icon-bathroom" viewBox="0 0 34 32"><path d="M30.666 18.666a1.342 1.342 0 011.336 1.342l-.002.076v-.003c-.412 6.668-5.919 11.919-12.654 11.92h-6.692C5.919 32 .412 26.749.002 20.117L0 20.081a1.354 1.354 0 01.36-.987l-.001.001c.241-.263.587-.428.97-.428H6.164a.667.667 0 00.634-.461l.001-.005a2.671 2.671 0 012.534-1.866h6.672c1.16.004 2.186.76 2.534 1.866.086.28.344.468.636.468h7.156a.666.666 0 00.666-.666V4.001v-.002a1.334 1.334 0 00-2.225-.993l.001-.001-.546.546a.667.667 0 00-.159.689l-.001-.005c.128.365.201.786.201 1.224a3.81 3.81 0 01-1.112 2.694l-.266.274c-.241.241-.575.39-.943.39s-.702-.149-.943-.39l-3.526-3.528c-.241-.241-.39-.575-.39-.943s.149-.702.39-.943l.274-.274a3.894 3.894 0 012.698-1.081c.432 0 .847.07 1.235.199l-.028-.008a.667.667 0 00.672-.164l.62-.618A4 4 0 0129.661 4v14c0 .368.3.666.668.666h.332zM15.334 27c.368 0 .666-.3.666-.666v-6.668a.666.666 0 00-.666-.666H10a.666.666 0 00-.666.666v6.668c0 .368.298.666.666.666h5.334z"/><path d="M12 8.118c.192 0 .384-.04.56-.118l2.42-1.118a1.334 1.334 0 10-1.122-2.421l.008-.003-2.424 1.116A1.334 1.334 0 0012 8.118zm6.83 7.228a1.334 1.334 0 001.744-.695l.003-.009 1.048-2.452a1.334 1.334 0 00-2.448-1.056l-.003.008-1.04 2.458a1.333 1.333 0 00.687 1.742l.009.003zM13.98 12.1a1.33 1.33 0 001.886.009l1.896-1.874a1.334 1.334 0 00-1.875-1.895l.001-.001-1.896 1.876a1.33 1.33 0 00-.009 1.886z"/></symbol><symbol id="icon-garage" viewBox="0 0 32 32"><path d="M31.6 7.89L16.266 1.22a.657.657 0 00-.536.002l.004-.002L.4 7.89a.667.667 0 00-.4.61v2c0 .368.3.666.666.666h30.668A.666.666 0 0032 10.5v-2a.665.665 0 00-.396-.608L31.6 7.89zM23 19.166H9.666a1 1 0 000 2H23a1 1 0 000-2zm0 4.668H9.666a1 1 0 000 2H23a1 1 0 000-2z"/><path d="M30.666 28.166a1.334 1.334 0 110 2.668H1.334a1.334 1.334 0 110-2.668H2a.666.666 0 00.666-.666V13.834c0-.368.3-.668.668-.668h25.332c.368 0 .668.3.668.668V27.5c0 .368.298.666.666.666h.666zM8 16.5c-.737 0-1.334.597-1.334 1.334V27.5c0 .368.3.666.668.666h18A.666.666 0 0026 27.5v-9.666c0-.737-.597-1.334-1.334-1.334H8z"/></symbol><symbol id="icon-grid-artboard" viewBox="0 0 32 32"><path d="M9.334 6a1.334 1.334 0 001.332-1.334V1.334l.001-.052A1.334 1.334 0 108 1.336v-.003 3.332c0 .738.596 1.334 1.334 1.334zM6 9.334C6 8.597 5.403 8 4.666 8H1.334a1.334 1.334 0 00-.002 2.666h3.335c.736 0 1.333-.596 1.334-1.332zm-1.334 12H1.334A1.334 1.334 0 001.332 24h3.335a1.334 1.334 0 00.002-2.666h-.003zM22.666 0a1.334 1.334 0 00-1.332 1.334v3.332A1.334 1.334 0 0024 4.668V1.333c0-.737-.597-1.334-1.334-1.334zM9.334 26C8.597 26 8 26.597 8 27.334v3.332l-.001.052a1.334 1.334 0 102.668 0l-.001-.054v.003-3.332c0-.736-.596-1.333-1.332-1.334zm13.332 0a1.334 1.334 0 00-1.332 1.334v3.332a1.334 1.334 0 002.666.002v-3.335c0-.737-.597-1.334-1.334-1.334zm4.668-15.334h3.332a1.334 1.334 0 10.052-2.667L30.664 8h.003-3.332l-.052-.001a1.334 1.334 0 100 2.668l.054-.001h-.003zm3.332 10.668h-3.332A1.334 1.334 0 0027.332 24h3.335a1.334 1.334 0 00.002-2.666h-.003zM22.666 8C23.402 8 24 8.596 24 9.334v13.332c0 .737-.597 1.334-1.334 1.334H9.334A1.334 1.334 0 018 22.666V9.334C8 8.596 8.596 8 9.334 8h13.332zm-2 13.334a.67.67 0 00.668-.668v-9.332-.002a.666.666 0 00-.666-.666H11.332a.666.666 0 00-.666.666V20.666c0 .368.3.668.668.668h9.332z"/></symbol><symbol id="icon-hotel-single-bed" viewBox="0 0 37 32"><path d="M16.123 5.163h5.088c2.357 0 4.4 1.621 4.941 3.915a.426.426 0 00.413.325h7.8a.424.424 0 00.424-.421V4.737a3.392 3.392 0 00-3.392-3.392H5.935a3.392 3.392 0 00-3.392 3.392v4.245a.424.424 0 00.424.421h7.8a.422.422 0 00.413-.325 5.08 5.08 0 014.941-3.915zM1.696 11.949c-.937 0-1.696.759-1.696 1.696v8.91c0 .808.568 1.504 1.36 1.664a.427.427 0 01.336.416v3.435a1.697 1.697 0 003.394 0v-3.392-.003c0-.234.19-.424.424-.424h26.304c.234 0 .424.19.424.424v3.395a1.697 1.697 0 003.394 0v-3.435a.428.428 0 01.336-.416h.003a1.699 1.699 0 001.357-1.662v-8.909-.003c0-.937-.759-1.696-1.696-1.696H1.695z"/></symbol><symbol id="icon-logo" viewBox="0 0 11 32"><path d="M10.946 5.647a5.12 5.12 0 10-10.24 0v15.482l4.216 3.021v7.36h1.807v-7.36l4.216-3.021V5.647zm-1.807 8.659L6.73 16.715v-2.259l2.409-2.409v2.259zm-4.179.15l-2.409-2.409v2.259l2.409 2.409v-2.259zm4.179-4.969L5.826 12.8 2.513 9.412V7.153l3.313 3.313 3.313-3.313v2.334zm-.113-4.696a3.336 3.336 0 00-3.199-2.456h-.001v-.038a3.335 3.335 0 00-3.195 2.471l-.005.023 3.2 3.191 3.2-3.191zM2.513 20.216v-3.388l2.409 2.409v2.692l-2.409-1.713zm4.216-.978v2.701l2.409-1.732v-3.379l-2.409 2.409z"/></symbol><symbol id="icon-logoText" viewBox="0 0 201 32"><path d="M158.551 26.842l-.019.094c-4.668 0-8.376-5.064-8.226-11.388V.489h-3.765v15.059c0 8.282 5.421 14.965 12.085 14.965s12.085-6.682 12.085-14.965V.489h-3.765v15.059c0 6.231-3.708 11.294-8.395 11.294zm-90.673 3.897l.038-11.219H54.043v3.765h10.165a10.864 10.864 0 01-8.245 3.765 11.294 11.294 0 118.395-18.823l2.767-2.466A15.059 15.059 0 0041.11 19.215a15.058 15.058 0 0014.721 11.45 14.475 14.475 0 008.282-2.616v2.692h3.765zM4.198.734v26.202h11.294v3.765H.433V.734h3.765zm23.021 22.588c-6.238 0-11.294-5.057-11.294-11.294a11.295 11.295 0 1111.294 11.294zm0-3.764a7.53 7.53 0 10-7.529-7.529 7.53 7.53 0 007.529 7.492v.038zm7.529 11.181H19.689v-3.765h15.059v3.765zm58.278-18.635c0 6.238-5.057 11.294-11.294 11.294s-11.294-5.057-11.294-11.294A11.294 11.294 0 0181.769.735l-.038.075c6.238 0 11.294 5.057 11.294 11.294zm-11.294 7.529a7.53 7.53 0 10-7.529-7.529 7.529 7.529 0 007.567 7.416l-.038.113zm7.529 11.181v-3.765H74.202v3.765h15.059zM97.035.734h3.765v29.929h-3.765V.734zm12.744 0h-3.765V30.72h3.765v-7.529h.584a11.293 11.293 0 100-22.457 2.715 2.715 0 00-.584 0zm0 3.765v.088l-.019.006.019-.094zm0 .088c.189-.063.385-.105.584-.125a7.528 7.528 0 017.342 11.512 7.531 7.531 0 01-7.342 3.415h-.584V4.587zm27.062-1.639l.062-.049-.019.094-.043-.045zm-5.246-2.12a7.04 7.04 0 015.246 2.12l-2.724 2.153a3.653 3.653 0 00-6.269 2.127v.301c0 1.656 1.148 2.767 3.388 2.918 8.621.527 12.574 4.574 12.574 9.92v.339a11.107 11.107 0 01-19.144 6.438l2.88-2.221a6.777 6.777 0 005.271 2.146 7.04 7.04 0 007.379-6.362v-.264c0-5.026-4.932-5.948-9.205-6.362-3.953-.376-6.795-2.842-6.795-6.4V7.53a7.247 7.247 0 017.398-6.701zm64.245 29.779h3.765L199.567.734l-12.424 16.358L174.719.734v29.929h3.765V11.971l8.678 11.294 8.678-11.294v18.635z"/></symbol></defs></svg>